# xmcd
#
# Track frame offsets: 
#        150
#        20824
#        38141
#        55967
#        77178
#        97248
#        115528
#        136821
#        159900
#        179940
#        201101
#
# Disc length: 2971 seconds
#
# Revision: 1
# Processed by: cddbd v1.5.2PL0 Copyright (c) Steve Scherf et al.
# Submitted via: ExactAudioCopy v1.0b3
#
DISCID=970b990b
DTITLE=刘佳 - 赤道和北极
DYEAR=2007
DGENRE=Pop-Folk
TTITLE0=赤道和北极
TTITLE1=命运
TTITLE2=刘佳, 江智民 - 发现爱
TTITLE3=没有你我真的好孤单
TTITLE4=My-Love-My-Fate
TTITLE5=无路可退
TTITLE6=恋恋风尘
TTITLE7=To the Children
TTITLE8=爱是一朵蔷薇
TTITLE9=灰
TTITLE10=刘佳, 江智民 - 还有一个他
EXTD=
EXTT0=
EXTT1=
EXTT2=
EXTT3=
EXTT4=
EXTT5=
EXTT6=
EXTT7=
EXTT8=
EXTT9=
EXTT10=
PLAYORDER=
